<svg preserveAspectRatio="none" width="100%" height="100%" overflow="visible" style="display: block;" viewBox="0 0 11 7.99903" fill="none" xmlns="http://www.w3.org/2000/svg">
<path id="Vector" d="M0.531251 3.82552C0.489583 3.93778 0.489583 4.06125 0.531251 4.17351C0.937081 5.15753 1.62595 5.99889 2.51054 6.59093C3.39512 7.18298 4.43558 7.49903 5.5 7.49903C6.56442 7.49903 7.60488 7.18298 8.48946 6.59093C9.37405 5.99889 10.0629 5.15753 10.4687 4.17351C10.5104 4.06125 10.5104 3.93778 10.4687 3.82552C10.0629 2.8415 9.37405 2.00014 8.48946 1.4081C7.60488 0.816055 6.56442 0.5 5.5 0.5C4.43558 0.5 3.39512 0.816055 2.51054 1.4081C1.62595 2.00014 0.937081 2.8415 0.531251 3.82552Z" stroke="var(--stroke-0, #4B342F)" stroke-linecap="round"/>
</svg>
