<svg preserveAspectRatio="none" width="100%" height="100%" overflow="visible" style="display: block;" viewBox="0 0 10.0011 10" fill="none" xmlns="http://www.w3.org/2000/svg">
<path id="Vector" d="M6.35076 1.85003L8.15099 3.65007M9.12938 2.66562C9.36733 2.42776 9.50104 2.10512 9.50108 1.76868C9.50112 1.43225 9.3675 1.10958 9.12961 0.871655C8.89172 0.63373 8.56905 0.500042 8.23258 0.5C7.89611 0.499958 7.5734 0.633565 7.33545 0.87143L1.32898 6.87862C1.22448 6.98279 1.14721 7.11106 1.10395 7.25212L0.509422 9.21057C0.49779 9.24949 0.496912 9.29083 0.506879 9.3302C0.516847 9.36958 0.537289 9.40553 0.566037 9.43423C0.594785 9.46292 0.630767 9.48331 0.670164 9.49321C0.709561 9.50311 0.750904 9.50217 0.789808 9.49048L2.74891 8.89646C2.88986 8.8536 3.01812 8.7768 3.12246 8.67281L9.12938 2.66562Z" stroke="var(--stroke-0, #4B342F)" stroke-linecap="round"/>
</svg>
