<svg preserveAspectRatio="none" width="100%" height="100%" overflow="visible" style="display: block;" viewBox="0 0 9.09935 10" fill="none" xmlns="http://www.w3.org/2000/svg">
<path id="Vector" d="M7.69942 2.3V8.6C7.69942 8.83869 7.60461 9.06761 7.43584 9.2364C7.26707 9.40518 7.03817 9.5 6.7995 9.5H2.29986C2.06118 9.5 1.83228 9.40518 1.66351 9.2364C1.49474 9.06761 1.39993 8.83869 1.39993 8.6V2.3M0.5 2.3H8.59935M2.74982 2.3V1.4C2.74982 1.16131 2.84463 0.932387 3.0134 0.763604C3.18217 0.594821 3.41107 0.5 3.64975 0.5H5.4496C5.68828 0.5 5.91718 0.594821 6.08595 0.763604C6.25472 0.932387 6.34953 1.16131 6.34953 1.4V2.3" stroke="var(--stroke-0, #8A3B2B)" stroke-linecap="round"/>
</svg>
